<mxfile host="app.diagrams.net" modified="2024-06-02T22:59:30.363Z" agent="Mozilla/5.0 (Windows NT 10.0; Win64; x64) AppleWebKit/537.36 (KHTML, like Gecko) Chrome/125.0.0.0 Safari/537.36" etag="iM0eKO9UFQLrYSm8hBfZ" version="24.4.13" type="github">
  <diagram name="PÃ¡gina-1" id="m4aAeRVmK_SpN2Lb98Ue">
    <mxGraphModel dx="3700" dy="2112" grid="1" gridSize="10" guides="1" tooltips="1" connect="1" arrows="1" fold="1" page="1" pageScale="1" pageWidth="400" pageHeight="1000" math="0" shadow="0">
      <root>
        <mxCell id="0" />
        <mxCell id="1" parent="0" />
        <mxCell id="HubkeISPRBbHYDE73yQU-1" value="Actor" style="shape=umlActor;verticalLabelPosition=bottom;verticalAlign=top;html=1;outlineConnect=0;" parent="1" vertex="1">
          <mxGeometry x="256" y="841" width="47" height="69" as="geometry" />
        </mxCell>
        <mxCell id="HubkeISPRBbHYDE73yQU-2" value="emusicauth" style="rounded=1;whiteSpace=wrap;html=1;fontSize=17;fillColor=#ffe6cc;strokeColor=#d79b00;fontStyle=1" parent="1" vertex="1">
          <mxGeometry x="265" y="229" width="198" height="105" as="geometry" />
        </mxCell>
        <mxCell id="HubkeISPRBbHYDE73yQU-3" value="" style="edgeStyle=elbowEdgeStyle;elbow=vertical;endArrow=none;html=1;curved=0;rounded=0;endSize=8;startSize=8;endFill=0;" parent="1" edge="1">
          <mxGeometry width="50" height="50" relative="1" as="geometry">
            <mxPoint x="279" y="571" as="sourcePoint" />
            <mxPoint x="279" y="337" as="targetPoint" />
            <Array as="points" />
          </mxGeometry>
        </mxCell>
        <mxCell id="HubkeISPRBbHYDE73yQU-4" value="" style="line;strokeWidth=1;direction=south;html=1;" parent="1" vertex="1">
          <mxGeometry x="275" y="634" width="10" height="207" as="geometry" />
        </mxCell>
        <mxCell id="HubkeISPRBbHYDE73yQU-5" value="&lt;div style=&quot;color: rgb(0, 0, 0); background-color: rgb(255, 255, 254); font-family: Consolas, &amp;quot;Courier New&amp;quot;, monospace; font-weight: normal; font-size: 14px; line-height: 18px; white-space: pre;&quot;&gt;&lt;div style=&quot;font-size: 14px;&quot;&gt;&lt;span style=&quot;color: rgb(0, 0, 0); font-size: 14px;&quot;&gt;{&lt;/span&gt;&lt;/div&gt;&lt;div style=&quot;font-size: 14px;&quot;&gt;&lt;span style=&quot;color: rgb(0, 0, 0); font-size: 14px;&quot;&gt;&amp;nbsp;&amp;nbsp;&amp;nbsp;&amp;nbsp;&lt;/span&gt;&lt;span style=&quot;color: rgb(163, 21, 21); font-size: 14px;&quot;&gt;&quot;access_token&quot;&lt;/span&gt;&lt;span style=&quot;color: rgb(0, 0, 0); font-size: 14px;&quot;&gt;:&amp;nbsp;&lt;/span&gt;&lt;span style=&quot;color: rgb(4, 81, 165); font-size: 14px;&quot;&gt;&quot;eyJhbGciOiJIUzUxMiJ9.eyJqdGkiOiJlNGUyYmJkMS04ZWNiLTQzYmQtY&lt;/span&gt;&lt;/div&gt;&lt;div style=&quot;font-size: 14px;&quot;&gt;&lt;span style=&quot;color: rgb(4, 81, 165); font-size: 14px;&quot;&gt;TVmNC05YzI2YzkyZTFhYWYiLCJpc3MiOiJlbXVzaWNhdXRoIiwiaWF0IjoxNzE3MzUwNzQ5LCJuYmYiOj&lt;/span&gt;&lt;/div&gt;&lt;div style=&quot;font-size: 14px;&quot;&gt;&lt;span style=&quot;color: rgb(4, 81, 165); font-size: 14px;&quot;&gt;E3MTczNTA3NDksImV4cCI6MTcxNzQzNzE0OX0.I2BIRpDfUNZ8hH7iHuoGwZuEeO1nxBSf8oqXpUbxAn&lt;/span&gt;&lt;/div&gt;&lt;div style=&quot;font-size: 14px;&quot;&gt;&lt;span style=&quot;color: rgb(4, 81, 165); font-size: 14px;&quot;&gt;PzzsKEHaE7uiC_xKi2vwdnhJ6AUxZY_tTOjuQltCqgyw&quot;&lt;/span&gt;&lt;/div&gt;&lt;div style=&quot;font-size: 14px;&quot;&gt;&lt;span style=&quot;color: rgb(0, 0, 0); font-size: 14px;&quot;&gt;}&lt;/span&gt;&lt;/div&gt;&lt;/div&gt;" style="text;whiteSpace=wrap;html=1;fontSize=14;" parent="1" vertex="1">
          <mxGeometry x="373" y="682.5" width="549" height="72" as="geometry" />
        </mxCell>
        <mxCell id="HubkeISPRBbHYDE73yQU-6" style="edgeStyle=orthogonalEdgeStyle;rounded=0;orthogonalLoop=1;jettySize=auto;html=1;entryX=0.5;entryY=0;entryDx=0;entryDy=0;strokeWidth=1;endArrow=none;endFill=0;" parent="1" source="HubkeISPRBbHYDE73yQU-7" target="HubkeISPRBbHYDE73yQU-15" edge="1">
          <mxGeometry relative="1" as="geometry">
            <Array as="points">
              <mxPoint x="1246" y="265" />
            </Array>
          </mxGeometry>
        </mxCell>
        <mxCell id="HubkeISPRBbHYDE73yQU-7" value="emusicuserds" style="rounded=1;whiteSpace=wrap;html=1;fontSize=14;fillColor=#ffe6cc;strokeColor=#d79b00;fontStyle=1" parent="1" vertex="1">
          <mxGeometry x="913" y="217" width="189" height="117" as="geometry" />
        </mxCell>
        <mxCell id="HubkeISPRBbHYDE73yQU-8" value="1.3" style="text;html=1;align=center;verticalAlign=middle;whiteSpace=wrap;rounded=0;fontSize=15;fontStyle=1" parent="1" vertex="1">
          <mxGeometry x="463" y="229" width="60" height="30" as="geometry" />
        </mxCell>
        <mxCell id="HubkeISPRBbHYDE73yQU-9" value="" style="endArrow=none;html=1;rounded=0;endFill=0;" parent="1" edge="1">
          <mxGeometry width="50" height="50" relative="1" as="geometry">
            <mxPoint x="463" y="265.75" as="sourcePoint" />
            <mxPoint x="913" y="266" as="targetPoint" />
          </mxGeometry>
        </mxCell>
        <mxCell id="HubkeISPRBbHYDE73yQU-10" value="" style="endArrow=none;html=1;rounded=0;entryX=1;entryY=0.75;entryDx=0;entryDy=0;endFill=0;" parent="1" target="HubkeISPRBbHYDE73yQU-2" edge="1">
          <mxGeometry width="50" height="50" relative="1" as="geometry">
            <mxPoint x="913" y="308" as="sourcePoint" />
            <mxPoint x="508" y="310" as="targetPoint" />
          </mxGeometry>
        </mxCell>
        <mxCell id="HubkeISPRBbHYDE73yQU-11" value="&lt;div style=&quot;color: rgb(0, 0, 0); background-color: rgb(255, 255, 254); font-family: Consolas, &amp;quot;Courier New&amp;quot;, monospace; font-weight: normal; font-size: 14px; line-height: 18px; white-space: pre;&quot;&gt;&lt;div style=&quot;font-size: 14px;&quot;&gt;&lt;span style=&quot;color: rgb(0, 0, 0); font-size: 14px;&quot;&gt;{&lt;/span&gt;&lt;/div&gt;&lt;div style=&quot;font-size: 14px;&quot;&gt;&lt;span style=&quot;color: rgb(0, 0, 0); font-size: 14px;&quot;&gt;&amp;nbsp;&amp;nbsp;&amp;nbsp;&amp;nbsp;&lt;/span&gt;&lt;span style=&quot;color: rgb(163, 21, 21); font-size: 14px;&quot;&gt;&quot;username&quot;&lt;/span&gt;&lt;span style=&quot;color: rgb(0, 0, 0); font-size: 14px;&quot;&gt;:&amp;nbsp;&lt;/span&gt;&lt;span style=&quot;color: rgb(4, 81, 165); font-size: 14px;&quot;&gt;&quot;root&quot;&lt;/span&gt;&lt;span style=&quot;color: rgb(0, 0, 0); font-size: 14px;&quot;&gt;,&lt;/span&gt;&lt;/div&gt;&lt;div style=&quot;font-size: 14px;&quot;&gt;&lt;span style=&quot;color: rgb(0, 0, 0); font-size: 14px;&quot;&gt;&amp;nbsp;&amp;nbsp;&amp;nbsp;&amp;nbsp;&lt;/span&gt;&lt;span style=&quot;color: rgb(163, 21, 21); font-size: 14px;&quot;&gt;&quot;password&quot;&lt;/span&gt;&lt;span style=&quot;color: rgb(0, 0, 0); font-size: 14px;&quot;&gt;:&amp;nbsp;&lt;/span&gt;&lt;span style=&quot;color: rgb(4, 81, 165); font-size: 14px;&quot;&gt;&quot;$2a$12$BLLkXNT4Q77qwyW7LA9Qeuqcl13S8bXmYmbjFYslizu1eILN0XrjO&quot;&lt;/span&gt;&lt;span style=&quot;color: rgb(0, 0, 0); font-size: 14px;&quot;&gt;,&lt;/span&gt;&lt;/div&gt;&lt;div style=&quot;font-size: 14px;&quot;&gt;&lt;span style=&quot;color: rgb(0, 0, 0); font-size: 14px;&quot;&gt;&amp;nbsp;&amp;nbsp;&amp;nbsp;&amp;nbsp;&lt;/span&gt;&lt;span style=&quot;color: rgb(163, 21, 21); font-size: 14px;&quot;&gt;&quot;firstName&quot;&lt;/span&gt;&lt;span style=&quot;color: rgb(0, 0, 0); font-size: 14px;&quot;&gt;:&amp;nbsp;&lt;/span&gt;&lt;span style=&quot;color: rgb(4, 81, 165); font-size: 14px;&quot;&gt;&quot;Admin&amp;nbsp;User&quot;&lt;/span&gt;&lt;span style=&quot;color: rgb(0, 0, 0); font-size: 14px;&quot;&gt;,&lt;/span&gt;&lt;/div&gt;&lt;div style=&quot;font-size: 14px;&quot;&gt;&lt;span style=&quot;color: rgb(0, 0, 0); font-size: 14px;&quot;&gt;&amp;nbsp;&amp;nbsp;&amp;nbsp;&amp;nbsp;&lt;/span&gt;&lt;span style=&quot;color: rgb(163, 21, 21); font-size: 14px;&quot;&gt;&quot;lastName&quot;&lt;/span&gt;&lt;span style=&quot;color: rgb(0, 0, 0); font-size: 14px;&quot;&gt;:&amp;nbsp;&lt;/span&gt;&lt;span style=&quot;color: rgb(4, 81, 165); font-size: 14px;&quot;&gt;&quot;Admin&quot;&lt;/span&gt;&lt;span style=&quot;color: rgb(0, 0, 0); font-size: 14px;&quot;&gt;,&lt;/span&gt;&lt;/div&gt;&lt;div style=&quot;font-size: 14px;&quot;&gt;&lt;span style=&quot;color: rgb(0, 0, 0); font-size: 14px;&quot;&gt;&amp;nbsp;&amp;nbsp;&amp;nbsp;&amp;nbsp;&lt;/span&gt;&lt;span style=&quot;color: rgb(163, 21, 21); font-size: 14px;&quot;&gt;&quot;documentNumber&quot;&lt;/span&gt;&lt;span style=&quot;color: rgb(0, 0, 0); font-size: 14px;&quot;&gt;:&amp;nbsp;&lt;/span&gt;&lt;span style=&quot;color: rgb(4, 81, 165); font-size: 14px;&quot;&gt;&quot;XXXXXXXX&quot;&lt;/span&gt;&lt;span style=&quot;color: rgb(0, 0, 0); font-size: 14px;&quot;&gt;,&lt;/span&gt;&lt;/div&gt;&lt;div style=&quot;font-size: 14px;&quot;&gt;&lt;span style=&quot;color: rgb(0, 0, 0); font-size: 14px;&quot;&gt;&amp;nbsp;&amp;nbsp;&amp;nbsp;&amp;nbsp;&lt;/span&gt;&lt;span style=&quot;color: rgb(163, 21, 21); font-size: 14px;&quot;&gt;&quot;premium&quot;&lt;/span&gt;&lt;span style=&quot;color: rgb(0, 0, 0); font-size: 14px;&quot;&gt;:&amp;nbsp;&lt;/span&gt;&lt;span style=&quot;color: rgb(4, 81, 165); font-weight: bold; font-size: 14px;&quot;&gt;false&lt;/span&gt;&lt;span style=&quot;color: rgb(0, 0, 0); font-size: 14px;&quot;&gt;,&lt;/span&gt;&lt;/div&gt;&lt;div style=&quot;font-size: 14px;&quot;&gt;&lt;span style=&quot;color: rgb(0, 0, 0); font-size: 14px;&quot;&gt;&amp;nbsp;&amp;nbsp;&amp;nbsp;&amp;nbsp;&lt;/span&gt;&lt;span style=&quot;color: rgb(163, 21, 21); font-size: 14px;&quot;&gt;&quot;createdDate&quot;&lt;/span&gt;&lt;span style=&quot;color: rgb(0, 0, 0); font-size: 14px;&quot;&gt;:&amp;nbsp;&lt;/span&gt;&lt;span style=&quot;color: rgb(4, 81, 165); font-size: 14px;&quot;&gt;&quot;2024-05-29&quot;&lt;/span&gt;&lt;span style=&quot;color: rgb(0, 0, 0); font-size: 14px;&quot;&gt;,&lt;/span&gt;&lt;/div&gt;&lt;div style=&quot;font-size: 14px;&quot;&gt;&lt;span style=&quot;color: rgb(0, 0, 0); font-size: 14px;&quot;&gt;&amp;nbsp;&amp;nbsp;&amp;nbsp;&amp;nbsp;&lt;/span&gt;&lt;span style=&quot;color: rgb(163, 21, 21); font-size: 14px;&quot;&gt;&quot;active&quot;&lt;/span&gt;&lt;span style=&quot;color: rgb(0, 0, 0); font-size: 14px;&quot;&gt;:&amp;nbsp;&lt;/span&gt;&lt;span style=&quot;color: rgb(4, 81, 165); font-weight: bold; font-size: 14px;&quot;&gt;false&lt;/span&gt;&lt;/div&gt;&lt;div style=&quot;font-size: 14px;&quot;&gt;&lt;span style=&quot;color: rgb(0, 0, 0); font-size: 14px;&quot;&gt;}&lt;/span&gt;&lt;/div&gt;&lt;/div&gt;" style="text;whiteSpace=wrap;html=1;fontSize=14;" parent="1" vertex="1">
          <mxGeometry x="409" y="346" width="369" height="117" as="geometry" />
        </mxCell>
        <mxCell id="HubkeISPRBbHYDE73yQU-12" value="" style="line;strokeWidth=1;direction=south;html=1;" parent="1" vertex="1">
          <mxGeometry x="325" y="334" width="10" height="237" as="geometry" />
        </mxCell>
        <mxCell id="HubkeISPRBbHYDE73yQU-13" value="" style="edgeStyle=segmentEdgeStyle;endArrow=classic;html=1;curved=0;rounded=0;endSize=8;startSize=8;" parent="1" edge="1">
          <mxGeometry width="50" height="50" relative="1" as="geometry">
            <mxPoint x="328" y="631" as="sourcePoint" />
            <mxPoint x="292" y="841" as="targetPoint" />
            <Array as="points">
              <mxPoint x="328" y="841" />
            </Array>
          </mxGeometry>
        </mxCell>
        <mxCell id="HubkeISPRBbHYDE73yQU-14" style="edgeStyle=orthogonalEdgeStyle;rounded=0;orthogonalLoop=1;jettySize=auto;html=1;entryX=0.75;entryY=1;entryDx=0;entryDy=0;endArrow=none;endFill=0;" parent="1" source="HubkeISPRBbHYDE73yQU-15" target="HubkeISPRBbHYDE73yQU-7" edge="1">
          <mxGeometry relative="1" as="geometry" />
        </mxCell>
        <mxCell id="HubkeISPRBbHYDE73yQU-15" value="users" style="shape=datastore;whiteSpace=wrap;html=1;fillColor=#e1d5e7;strokeColor=#9673a6;fontSize=14;fontStyle=1" parent="1" vertex="1">
          <mxGeometry x="1192" y="334" width="108" height="108" as="geometry" />
        </mxCell>
        <mxCell id="HubkeISPRBbHYDE73yQU-16" value="1.5" style="text;html=1;align=center;verticalAlign=middle;whiteSpace=wrap;rounded=0;fontSize=15;fontStyle=1" parent="1" vertex="1">
          <mxGeometry x="1048" y="355" width="60" height="30" as="geometry" />
        </mxCell>
        <mxCell id="HubkeISPRBbHYDE73yQU-17" value="1.6" style="text;html=1;align=center;verticalAlign=middle;whiteSpace=wrap;rounded=0;fontSize=15;fontStyle=1" parent="1" vertex="1">
          <mxGeometry x="853" y="277" width="60" height="30" as="geometry" />
        </mxCell>
        <mxCell id="HubkeISPRBbHYDE73yQU-18" value="&lt;font style=&quot;font-size: 18px;&quot;&gt;Fluxo AutenticaÃ§Ã£o&lt;/font&gt;" style="swimlane;whiteSpace=wrap;html=1;strokeColor=#6c8ebf;fillColor=#dae8fc;fillStyle=auto;swimlaneFillColor=none;shadow=0;sketch=1;curveFitting=1;jiggle=2;rounded=0;labelBackgroundColor=#D4E1F5;" parent="1" vertex="1">
          <mxGeometry x="40" y="184" width="1332" height="684" as="geometry" />
        </mxCell>
        <mxCell id="HubkeISPRBbHYDE73yQU-19" value="1.7" style="text;html=1;align=center;verticalAlign=middle;whiteSpace=wrap;rounded=0;fontSize=15;fontStyle=1" parent="HubkeISPRBbHYDE73yQU-18" vertex="1">
          <mxGeometry x="279" y="450" width="60" height="30" as="geometry" />
        </mxCell>
        <mxCell id="HubkeISPRBbHYDE73yQU-20" value="&lt;div style=&quot;color: rgb(0, 0, 0); background-color: rgb(255, 255, 254); font-family: Consolas, &amp;quot;Courier New&amp;quot;, monospace; font-weight: normal; font-size: 15px; line-height: 18px; white-space: pre;&quot;&gt;&lt;div style=&quot;font-size: 15px;&quot;&gt;&lt;span style=&quot;color: rgb(0, 0, 0); font-size: 15px;&quot;&gt;{&lt;/span&gt;&lt;/div&gt;&lt;div style=&quot;font-size: 15px;&quot;&gt;&lt;span style=&quot;color: rgb(0, 0, 0); font-size: 15px;&quot;&gt;&amp;nbsp;&amp;nbsp;&amp;nbsp;&amp;nbsp;&lt;/span&gt;&lt;span style=&quot;color: rgb(163, 21, 21); font-size: 15px;&quot;&gt;&quot;username&quot;&lt;/span&gt;&lt;span style=&quot;color: rgb(0, 0, 0); font-size: 15px;&quot;&gt;:&amp;nbsp;&lt;/span&gt;&lt;span style=&quot;color: rgb(4, 81, 165); font-size: 15px;&quot;&gt;&quot;root&quot;&lt;/span&gt;&lt;span style=&quot;color: rgb(0, 0, 0); font-size: 15px;&quot;&gt;,&lt;/span&gt;&lt;/div&gt;&lt;div style=&quot;font-size: 15px;&quot;&gt;&lt;span style=&quot;color: rgb(0, 0, 0); font-size: 15px;&quot;&gt;&amp;nbsp;&amp;nbsp;&amp;nbsp;&amp;nbsp;&lt;/span&gt;&lt;span style=&quot;color: rgb(163, 21, 21); font-size: 15px;&quot;&gt;&quot;password&quot;&lt;/span&gt;&lt;span style=&quot;color: rgb(0, 0, 0); font-size: 15px;&quot;&gt;:&amp;nbsp;&lt;/span&gt;&lt;span style=&quot;color: rgb(4, 81, 165); font-size: 15px;&quot;&gt;&quot;root&quot;&lt;/span&gt;&lt;/div&gt;&lt;div style=&quot;font-size: 15px;&quot;&gt;&lt;span style=&quot;color: rgb(0, 0, 0); font-size: 15px;&quot;&gt;}&lt;/span&gt;&lt;/div&gt;&lt;/div&gt;" style="text;whiteSpace=wrap;html=1;fontSize=15;" parent="HubkeISPRBbHYDE73yQU-18" vertex="1">
          <mxGeometry x="27" y="468" width="171" height="90" as="geometry" />
        </mxCell>
        <mxCell id="HubkeISPRBbHYDE73yQU-21" value="1.2" style="text;html=1;align=center;verticalAlign=middle;whiteSpace=wrap;rounded=0;fontSize=15;fontStyle=1" parent="HubkeISPRBbHYDE73yQU-18" vertex="1">
          <mxGeometry x="189" y="171" width="60" height="30" as="geometry" />
        </mxCell>
        <mxCell id="HubkeISPRBbHYDE73yQU-22" value="1.4" style="text;html=1;align=center;verticalAlign=middle;whiteSpace=wrap;rounded=0;fontSize=15;fontStyle=1" parent="HubkeISPRBbHYDE73yQU-18" vertex="1">
          <mxGeometry x="1053" y="54" width="60" height="36" as="geometry" />
        </mxCell>
        <mxCell id="HubkeISPRBbHYDE73yQU-23" value="emusicapp" style="rounded=1;whiteSpace=wrap;html=1;fontSize=22;fontStyle=1;fillColor=#d5e8d4;strokeColor=#82b366;" parent="1" vertex="1">
          <mxGeometry x="1651" y="76" width="288" height="153" as="geometry" />
        </mxCell>
        <mxCell id="HubkeISPRBbHYDE73yQU-24" value="&lt;div style=&quot;color: rgb(0, 0, 0); background-color: rgb(255, 255, 254); font-family: Consolas, &amp;quot;Courier New&amp;quot;, monospace; font-weight: normal; font-size: 14px; line-height: 18px; white-space: pre;&quot;&gt;&lt;div style=&quot;font-size: 14px;&quot;&gt;&lt;span style=&quot;color: rgb(0, 0, 0); font-size: 14px;&quot;&gt;{&lt;/span&gt;&lt;/div&gt;&lt;div style=&quot;font-size: 14px;&quot;&gt;&lt;span style=&quot;color: rgb(0, 0, 0); font-size: 14px;&quot;&gt;&amp;nbsp;&amp;nbsp;&amp;nbsp;&amp;nbsp;&lt;/span&gt;&lt;span style=&quot;color: rgb(163, 21, 21); font-size: 14px;&quot;&gt;&quot;access_token&quot;&lt;/span&gt;&lt;span style=&quot;color: rgb(0, 0, 0); font-size: 14px;&quot;&gt;:&amp;nbsp;&lt;/span&gt;&lt;span style=&quot;color: rgb(4, 81, 165); font-size: 14px;&quot;&gt;&quot;eyJhbGciOiJIUzUxMiJ9.eyJqdGkiOiJlNGUyYmJkMS04ZWNiLTQzYmQtY&lt;/span&gt;&lt;/div&gt;&lt;div style=&quot;font-size: 14px;&quot;&gt;&lt;span style=&quot;color: rgb(4, 81, 165); font-size: 14px;&quot;&gt;TVmNC05YzI2YzkyZTFhYWYiLCJpc3MiOiJlbXVzaWNhdXRoIiwiaWF0IjoxNzE3MzUwNzQ5LCJuYmYiOj&lt;/span&gt;&lt;/div&gt;&lt;div style=&quot;font-size: 14px;&quot;&gt;&lt;span style=&quot;color: rgb(4, 81, 165); font-size: 14px;&quot;&gt;E3MTczNTA3NDksImV4cCI6MTcxNzQzNzE0OX0.I2BIRpDfUNZ8hH7iHuoGwZuEeO1nxBSf8oqXpUbxAn&lt;/span&gt;&lt;/div&gt;&lt;div style=&quot;font-size: 14px;&quot;&gt;&lt;span style=&quot;color: rgb(4, 81, 165); font-size: 14px;&quot;&gt;PzzsKEHaE7uiC_xKi2vwdnhJ6AUxZY_tTOjuQltCqgyw&quot;&lt;/span&gt;&lt;/div&gt;&lt;div style=&quot;font-size: 14px;&quot;&gt;&lt;span style=&quot;color: rgb(0, 0, 0); font-size: 14px;&quot;&gt;}&lt;/span&gt;&lt;/div&gt;&lt;/div&gt;" style="text;whiteSpace=wrap;html=1;fontSize=14;" parent="1" vertex="1">
          <mxGeometry x="1570" y="706" width="549" height="72" as="geometry" />
        </mxCell>
        <mxCell id="HubkeISPRBbHYDE73yQU-25" style="edgeStyle=orthogonalEdgeStyle;rounded=0;orthogonalLoop=1;jettySize=auto;html=1;endArrow=none;endFill=0;" parent="1" source="HubkeISPRBbHYDE73yQU-26" edge="1">
          <mxGeometry relative="1" as="geometry">
            <mxPoint x="1922" y="570" as="targetPoint" />
            <Array as="points">
              <mxPoint x="1922" y="373" />
            </Array>
          </mxGeometry>
        </mxCell>
        <mxCell id="HubkeISPRBbHYDE73yQU-26" value="Spotify" style="rounded=1;whiteSpace=wrap;html=1;fontSize=22;fontStyle=1;fillColor=#fff2cc;strokeColor=#d6b656;" parent="1" vertex="1">
          <mxGeometry x="1597" y="307" width="288" height="153" as="geometry" />
        </mxCell>
        <mxCell id="HubkeISPRBbHYDE73yQU-27" value="" style="edgeStyle=segmentEdgeStyle;endArrow=none;html=1;curved=0;rounded=0;endSize=8;startSize=8;endFill=0;" parent="1" edge="1">
          <mxGeometry width="50" height="50" relative="1" as="geometry">
            <mxPoint x="1543" y="571" as="sourcePoint" />
            <mxPoint x="1597" y="373" as="targetPoint" />
            <Array as="points">
              <mxPoint x="1539" y="571" />
              <mxPoint x="1539" y="373" />
            </Array>
          </mxGeometry>
        </mxCell>
        <mxCell id="HubkeISPRBbHYDE73yQU-28" value="client_id, client_secret, grant_type&lt;div style=&quot;font-size: 15px;&quot;&gt;(x-www-form-url-encoded)&lt;/div&gt;" style="text;html=1;align=center;verticalAlign=middle;whiteSpace=wrap;rounded=0;fontSize=15;fontStyle=1" parent="1" vertex="1">
          <mxGeometry x="1555" y="481" width="249" height="48" as="geometry" />
        </mxCell>
        <mxCell id="HubkeISPRBbHYDE73yQU-29" value="2.2" style="text;html=1;align=center;verticalAlign=middle;whiteSpace=wrap;rounded=0;fontSize=15;fontStyle=1" parent="1" vertex="1">
          <mxGeometry x="1543" y="346" width="60" height="30" as="geometry" />
        </mxCell>
        <mxCell id="HubkeISPRBbHYDE73yQU-30" value="&lt;div style=&quot;color: rgb(0, 0, 0); background-color: rgb(255, 255, 254); font-family: Consolas, &amp;quot;Courier New&amp;quot;, monospace; font-weight: normal; font-size: 15px; line-height: 18px; white-space: pre;&quot;&gt;&lt;div style=&quot;font-size: 15px;&quot;&gt;&lt;span style=&quot;color: rgb(0, 0, 0); font-size: 15px;&quot;&gt;{&lt;/span&gt;&lt;/div&gt;&lt;div style=&quot;font-size: 15px;&quot;&gt;&lt;span style=&quot;color: rgb(0, 0, 0); font-size: 15px;&quot;&gt;&amp;nbsp;&amp;nbsp;&amp;nbsp;&amp;nbsp;&lt;/span&gt;&lt;span style=&quot;color: rgb(163, 21, 21); font-size: 15px;&quot;&gt;&quot;access_token&quot;&lt;/span&gt;&lt;span style=&quot;color: rgb(0, 0, 0); font-size: 15px;&quot;&gt;:&amp;nbsp;&lt;/span&gt;&lt;span style=&quot;color: rgb(4, 81, 165); font-size: 15px;&quot;&gt;&quot;BQDpfOLGy-KfvmUfiizY9xY86k94RpqI7SeP4mtdOMz&lt;/span&gt;&lt;/div&gt;&lt;div style=&quot;font-size: 15px;&quot;&gt;&lt;span style=&quot;color: rgb(4, 81, 165); font-size: 15px;&quot;&gt;--6IRGqexLmwj_N0tE&lt;/span&gt;&lt;span style=&quot;color: rgb(4, 81, 165);&quot;&gt;YtqWHiZnBTiBDMnXv3UDaE7t5zpTSVJITiVzkS8NCabPHgI&lt;/span&gt;&lt;/div&gt;&lt;div style=&quot;font-size: 15px;&quot;&gt;&lt;span style=&quot;color: rgb(4, 81, 165);&quot;&gt;RMmmxeo&quot;&lt;/span&gt;,&lt;/div&gt;&lt;div style=&quot;font-size: 15px;&quot;&gt;&lt;span style=&quot;color: rgb(0, 0, 0); font-size: 15px;&quot;&gt;&amp;nbsp;&amp;nbsp;&amp;nbsp;&amp;nbsp;&lt;/span&gt;&lt;span style=&quot;color: rgb(163, 21, 21); font-size: 15px;&quot;&gt;&quot;token_type&quot;&lt;/span&gt;&lt;span style=&quot;color: rgb(0, 0, 0); font-size: 15px;&quot;&gt;:&amp;nbsp;&lt;/span&gt;&lt;span style=&quot;color: rgb(4, 81, 165); font-size: 15px;&quot;&gt;&quot;Bearer&quot;&lt;/span&gt;&lt;span style=&quot;color: rgb(0, 0, 0); font-size: 15px;&quot;&gt;,&lt;/span&gt;&lt;/div&gt;&lt;div style=&quot;font-size: 15px;&quot;&gt;&lt;span style=&quot;color: rgb(0, 0, 0); font-size: 15px;&quot;&gt;&amp;nbsp;&amp;nbsp;&amp;nbsp;&amp;nbsp;&lt;/span&gt;&lt;span style=&quot;color: rgb(163, 21, 21); font-size: 15px;&quot;&gt;&quot;expires_in&quot;&lt;/span&gt;&lt;span style=&quot;color: rgb(0, 0, 0); font-size: 15px;&quot;&gt;:&amp;nbsp;&lt;/span&gt;&lt;span style=&quot;color: rgb(9, 134, 88); font-size: 15px;&quot;&gt;3600&lt;/span&gt;&lt;/div&gt;&lt;div style=&quot;font-size: 15px;&quot;&gt;&lt;span style=&quot;color: rgb(0, 0, 0); font-size: 15px;&quot;&gt;}&lt;/span&gt;&lt;/div&gt;&lt;/div&gt;" style="text;whiteSpace=wrap;html=1;fontSize=15;" parent="1" vertex="1">
          <mxGeometry x="1939" y="391" width="549" height="108" as="geometry" />
        </mxCell>
        <mxCell id="HubkeISPRBbHYDE73yQU-31" value="2.3" style="text;html=1;align=center;verticalAlign=middle;whiteSpace=wrap;rounded=0;fontSize=15;fontStyle=1" parent="1" vertex="1">
          <mxGeometry x="1924" y="529" width="60" height="30" as="geometry" />
        </mxCell>
        <mxCell id="HubkeISPRBbHYDE73yQU-33" value="2.4" style="text;html=1;align=center;verticalAlign=middle;whiteSpace=wrap;rounded=0;fontSize=15;fontStyle=1" parent="1" vertex="1">
          <mxGeometry x="2551" y="529" width="60" height="30" as="geometry" />
        </mxCell>
        <mxCell id="HubkeISPRBbHYDE73yQU-34" value="&lt;div style=&quot;color: rgb(0, 0, 0); background-color: rgb(255, 255, 254); font-family: Consolas, &amp;quot;Courier New&amp;quot;, monospace; font-weight: normal; font-size: 15px; line-height: 18px; white-space: pre;&quot;&gt;&lt;div style=&quot;font-size: 15px;&quot;&gt;&lt;span style=&quot;color: rgb(0, 0, 0); font-size: 15px;&quot;&gt;{&lt;/span&gt;&lt;/div&gt;&lt;div style=&quot;font-size: 15px;&quot;&gt;&lt;span style=&quot;color: rgb(0, 0, 0); font-size: 15px;&quot;&gt;&amp;nbsp;&amp;nbsp;&amp;nbsp;&amp;nbsp;&lt;/span&gt;&lt;span style=&quot;color: rgb(163, 21, 21); font-size: 15px;&quot;&gt;&quot;access_token&quot;&lt;/span&gt;&lt;span style=&quot;color: rgb(0, 0, 0); font-size: 15px;&quot;&gt;:&amp;nbsp;&lt;/span&gt;&lt;span style=&quot;color: rgb(4, 81, 165); font-size: 15px;&quot;&gt;&quot;BQDpfOLGy-KfvmUfiizY9xY86k94RpqI7SeP4mtdOMz&lt;/span&gt;&lt;/div&gt;&lt;div style=&quot;font-size: 15px;&quot;&gt;&lt;span style=&quot;color: rgb(4, 81, 165); font-size: 15px;&quot;&gt;--6IRGqexLmwj_N0tE&lt;/span&gt;&lt;span style=&quot;color: rgb(4, 81, 165);&quot;&gt;YtqWHiZnBTiBDMnXv3UDaE7t5zpTSVJITiVzkS8NCabPHgI&lt;/span&gt;&lt;/div&gt;&lt;div style=&quot;font-size: 15px;&quot;&gt;&lt;span style=&quot;color: rgb(4, 81, 165);&quot;&gt;RMmmxeo&quot;&lt;/span&gt;,&lt;/div&gt;&lt;div style=&quot;font-size: 15px;&quot;&gt;&lt;span style=&quot;color: rgb(0, 0, 0); font-size: 15px;&quot;&gt;&amp;nbsp;&amp;nbsp;&amp;nbsp;&amp;nbsp;&lt;/span&gt;&lt;span style=&quot;color: rgb(163, 21, 21); font-size: 15px;&quot;&gt;&quot;token_type&quot;&lt;/span&gt;&lt;span style=&quot;color: rgb(0, 0, 0); font-size: 15px;&quot;&gt;:&amp;nbsp;&lt;/span&gt;&lt;span style=&quot;color: rgb(4, 81, 165); font-size: 15px;&quot;&gt;&quot;Bearer&quot;&lt;/span&gt;&lt;span style=&quot;color: rgb(0, 0, 0); font-size: 15px;&quot;&gt;,&lt;/span&gt;&lt;/div&gt;&lt;div style=&quot;font-size: 15px;&quot;&gt;&lt;span style=&quot;color: rgb(0, 0, 0); font-size: 15px;&quot;&gt;&amp;nbsp;&amp;nbsp;&amp;nbsp;&amp;nbsp;&lt;/span&gt;&lt;span style=&quot;color: rgb(163, 21, 21); font-size: 15px;&quot;&gt;&quot;expires_in&quot;&lt;/span&gt;&lt;span style=&quot;color: rgb(0, 0, 0); font-size: 15px;&quot;&gt;:&amp;nbsp;&lt;/span&gt;&lt;span style=&quot;color: rgb(9, 134, 88); font-size: 15px;&quot;&gt;3600&lt;/span&gt;&lt;/div&gt;&lt;div style=&quot;font-size: 15px;&quot;&gt;&lt;span style=&quot;color: rgb(0, 0, 0); font-size: 15px;&quot;&gt;}&lt;/span&gt;&lt;/div&gt;&lt;/div&gt;" style="text;whiteSpace=wrap;html=1;fontSize=15;" parent="1" vertex="1">
          <mxGeometry x="2569" y="346" width="549" height="108" as="geometry" />
        </mxCell>
        <mxCell id="HubkeISPRBbHYDE73yQU-35" value="2.5" style="text;html=1;align=center;verticalAlign=middle;whiteSpace=wrap;rounded=0;fontSize=15;fontStyle=1" parent="1" vertex="1">
          <mxGeometry x="1579" y="103" width="60" height="36" as="geometry" />
        </mxCell>
        <mxCell id="HubkeISPRBbHYDE73yQU-36" value="RESPONSE (JSON)" style="label;whiteSpace=wrap;html=1;image=img/clipart/Gear_128x128.png;fillColor=#f8cecc;strokeColor=#b85450;" parent="1" vertex="1">
          <mxGeometry x="1489" y="157" width="140" height="60" as="geometry" />
        </mxCell>
        <mxCell id="HubkeISPRBbHYDE73yQU-37" value="" style="edgeStyle=orthogonalEdgeStyle;rounded=0;orthogonalLoop=1;jettySize=auto;html=1;" parent="1" edge="1">
          <mxGeometry relative="1" as="geometry">
            <mxPoint x="274" y="931" as="targetPoint" />
            <Array as="points">
              <mxPoint x="1472" y="132" />
              <mxPoint x="1472" y="967" />
              <mxPoint x="274" y="967" />
            </Array>
            <mxPoint x="1651" y="132.0769230769231" as="sourcePoint" />
          </mxGeometry>
        </mxCell>
        <mxCell id="HubkeISPRBbHYDE73yQU-38" value="" style="shape=partialRectangle;whiteSpace=wrap;html=1;bottom=0;right=0;fillColor=none;rotation=-180;" parent="1" vertex="1">
          <mxGeometry x="298" y="634" width="1242" height="261" as="geometry" />
        </mxCell>
        <mxCell id="HubkeISPRBbHYDE73yQU-39" value="2.1" style="text;html=1;align=center;verticalAlign=middle;whiteSpace=wrap;rounded=0;fontSize=15;fontStyle=1" parent="1" vertex="1">
          <mxGeometry x="285" y="865" width="60" height="30" as="geometry" />
        </mxCell>
        <mxCell id="HubkeISPRBbHYDE73yQU-40" value="&lt;br style=&quot;font-size: 17px;&quot;&gt;&lt;span style=&quot;color: rgb(80, 80, 80); font-family: OpenSans, Helvetica, Arial, sans-serif; font-size: 17px; font-style: normal; font-variant-ligatures: normal; font-variant-caps: normal; font-weight: 400; letter-spacing: normal; orphans: 2; text-align: left; text-indent: 0px; text-transform: none; white-space: pre-wrap; widows: 2; word-spacing: 0px; -webkit-text-stroke-width: 0px; background-color: rgb(255, 255, 255); text-decoration-style: initial; text-decoration-color: initial; float: none; display: inline !important;&quot;&gt;/emusicapp/v1/&lt;/span&gt;&lt;span style=&quot;color: rgb(80, 80, 80); font-family: OpenSans, Helvetica, Arial, sans-serif; font-size: 17px; font-style: normal; font-variant-ligatures: normal; font-variant-caps: normal; letter-spacing: normal; orphans: 2; text-align: left; text-indent: 0px; text-transform: none; white-space: pre-wrap; widows: 2; word-spacing: 0px; -webkit-text-stroke-width: 0px; background-color: rgb(255, 255, 255); text-decoration-style: initial; text-decoration-color: initial; float: none; display: inline !important;&quot;&gt;&lt;b style=&quot;font-size: 17px;&quot;&gt;resource&lt;/b&gt;&lt;/span&gt;&lt;div style=&quot;font-size: 17px;&quot;&gt;&lt;br style=&quot;font-size: 17px;&quot;&gt;&lt;/div&gt;" style="text;html=1;align=center;verticalAlign=middle;whiteSpace=wrap;rounded=0;fontSize=17;" parent="1" vertex="1">
          <mxGeometry x="2011" y="94" width="60" height="30" as="geometry" />
        </mxCell>
        <mxCell id="HubkeISPRBbHYDE73yQU-41" value="1.1" style="text;html=1;align=center;verticalAlign=middle;whiteSpace=wrap;rounded=0;fontSize=17;fontStyle=1" parent="1" vertex="1">
          <mxGeometry x="229" y="814" width="60" height="30" as="geometry" />
        </mxCell>
        <mxCell id="HubkeISPRBbHYDE73yQU-42" value="&lt;font style=&quot;font-size: 18px;&quot;&gt;Fluxo Autenticado&lt;/font&gt;" style="swimlane;whiteSpace=wrap;html=1;strokeColor=#6c8ebf;fillColor=#dae8fc;fillStyle=auto;swimlaneFillColor=none;shadow=0;sketch=1;curveFitting=1;jiggle=2;rounded=0;labelBackgroundColor=#D4E1F5;" parent="1" vertex="1">
          <mxGeometry x="1417" y="40" width="1701" height="810" as="geometry" />
        </mxCell>
        <mxCell id="HubkeISPRBbHYDE73yQU-43" value="1.7" style="text;html=1;align=center;verticalAlign=middle;whiteSpace=wrap;rounded=0;fontSize=15;fontStyle=1" parent="HubkeISPRBbHYDE73yQU-42" vertex="1">
          <mxGeometry x="279" y="450" width="60" height="30" as="geometry" />
        </mxCell>
        <mxCell id="HubkeISPRBbHYDE73yQU-44" value="API Gateway" style="shape=process;whiteSpace=wrap;html=1;backgroundOutline=1;fontSize=20;fillColor=#d5e8d4;strokeColor=#82b366;opacity=70;" parent="HubkeISPRBbHYDE73yQU-42" vertex="1">
          <mxGeometry x="-2810" y="531" width="4133" height="63" as="geometry" />
        </mxCell>
        <mxCell id="HubkeISPRBbHYDE73yQU-32" value="" style="edgeStyle=segmentEdgeStyle;endArrow=none;html=1;curved=0;rounded=0;endSize=8;startSize=8;endFill=0;" parent="HubkeISPRBbHYDE73yQU-42" edge="1">
          <mxGeometry width="50" height="50" relative="1" as="geometry">
            <mxPoint x="1138" y="530" as="sourcePoint" />
            <mxPoint x="522" y="80" as="targetPoint" />
            <Array as="points">
              <mxPoint x="1138" y="518" />
              <mxPoint x="1138" y="80" />
            </Array>
          </mxGeometry>
        </mxCell>
        <mxCell id="QyaIkdRGfRYQji_6prUf-1" value="Actor" style="shape=umlActor;verticalLabelPosition=bottom;verticalAlign=top;html=1;outlineConnect=0;" vertex="1" parent="1">
          <mxGeometry x="-1124" y="841" width="47" height="69" as="geometry" />
        </mxCell>
        <mxCell id="QyaIkdRGfRYQji_6prUf-2" value="emusicregister" style="rounded=1;whiteSpace=wrap;html=1;fontSize=17;fillColor=#ffe6cc;strokeColor=#d79b00;fontStyle=1" vertex="1" parent="1">
          <mxGeometry x="-1115" y="229" width="198" height="105" as="geometry" />
        </mxCell>
        <mxCell id="QyaIkdRGfRYQji_6prUf-3" value="" style="edgeStyle=elbowEdgeStyle;elbow=vertical;endArrow=none;html=1;curved=0;rounded=0;endSize=8;startSize=8;endFill=0;" edge="1" parent="1">
          <mxGeometry width="50" height="50" relative="1" as="geometry">
            <mxPoint x="-1101" y="571" as="sourcePoint" />
            <mxPoint x="-1101" y="337" as="targetPoint" />
            <Array as="points" />
          </mxGeometry>
        </mxCell>
        <mxCell id="QyaIkdRGfRYQji_6prUf-4" value="" style="line;strokeWidth=1;direction=south;html=1;" vertex="1" parent="1">
          <mxGeometry x="-1105" y="634" width="10" height="207" as="geometry" />
        </mxCell>
        <mxCell id="QyaIkdRGfRYQji_6prUf-6" style="edgeStyle=orthogonalEdgeStyle;rounded=0;orthogonalLoop=1;jettySize=auto;html=1;entryX=0.5;entryY=0;entryDx=0;entryDy=0;strokeWidth=1;endArrow=none;endFill=0;" edge="1" parent="1" source="QyaIkdRGfRYQji_6prUf-7" target="QyaIkdRGfRYQji_6prUf-15">
          <mxGeometry relative="1" as="geometry">
            <Array as="points">
              <mxPoint x="-134" y="265" />
            </Array>
          </mxGeometry>
        </mxCell>
        <mxCell id="QyaIkdRGfRYQji_6prUf-7" value="emusicuserds" style="rounded=1;whiteSpace=wrap;html=1;fontSize=14;fillColor=#ffe6cc;strokeColor=#d79b00;fontStyle=1" vertex="1" parent="1">
          <mxGeometry x="-467" y="217" width="189" height="117" as="geometry" />
        </mxCell>
        <mxCell id="QyaIkdRGfRYQji_6prUf-8" value="1.2" style="text;html=1;align=center;verticalAlign=middle;whiteSpace=wrap;rounded=0;fontSize=15;fontStyle=1" vertex="1" parent="1">
          <mxGeometry x="-917" y="229" width="60" height="30" as="geometry" />
        </mxCell>
        <mxCell id="QyaIkdRGfRYQji_6prUf-9" value="" style="endArrow=none;html=1;rounded=0;endFill=0;" edge="1" parent="1">
          <mxGeometry width="50" height="50" relative="1" as="geometry">
            <mxPoint x="-917" y="265.75" as="sourcePoint" />
            <mxPoint x="-467" y="266" as="targetPoint" />
          </mxGeometry>
        </mxCell>
        <mxCell id="QyaIkdRGfRYQji_6prUf-10" value="" style="endArrow=none;html=1;rounded=0;entryX=1;entryY=0.75;entryDx=0;entryDy=0;endFill=0;" edge="1" parent="1" target="QyaIkdRGfRYQji_6prUf-2">
          <mxGeometry width="50" height="50" relative="1" as="geometry">
            <mxPoint x="-467" y="308" as="sourcePoint" />
            <mxPoint x="-872" y="310" as="targetPoint" />
          </mxGeometry>
        </mxCell>
        <mxCell id="QyaIkdRGfRYQji_6prUf-12" value="" style="line;strokeWidth=1;direction=south;html=1;" vertex="1" parent="1">
          <mxGeometry x="-1055" y="334" width="10" height="237" as="geometry" />
        </mxCell>
        <mxCell id="QyaIkdRGfRYQji_6prUf-13" value="" style="edgeStyle=segmentEdgeStyle;endArrow=classic;html=1;curved=0;rounded=0;endSize=8;startSize=8;" edge="1" parent="1">
          <mxGeometry width="50" height="50" relative="1" as="geometry">
            <mxPoint x="-1052" y="631" as="sourcePoint" />
            <mxPoint x="-1088" y="841" as="targetPoint" />
            <Array as="points">
              <mxPoint x="-1052" y="841" />
            </Array>
          </mxGeometry>
        </mxCell>
        <mxCell id="QyaIkdRGfRYQji_6prUf-14" style="edgeStyle=orthogonalEdgeStyle;rounded=0;orthogonalLoop=1;jettySize=auto;html=1;entryX=0.75;entryY=1;entryDx=0;entryDy=0;endArrow=none;endFill=0;" edge="1" parent="1" source="QyaIkdRGfRYQji_6prUf-15" target="QyaIkdRGfRYQji_6prUf-7">
          <mxGeometry relative="1" as="geometry" />
        </mxCell>
        <mxCell id="QyaIkdRGfRYQji_6prUf-15" value="users" style="shape=datastore;whiteSpace=wrap;html=1;fillColor=#e1d5e7;strokeColor=#9673a6;fontSize=14;fontStyle=1" vertex="1" parent="1">
          <mxGeometry x="-188" y="334" width="108" height="108" as="geometry" />
        </mxCell>
        <mxCell id="QyaIkdRGfRYQji_6prUf-16" value="1.4" style="text;html=1;align=center;verticalAlign=middle;whiteSpace=wrap;rounded=0;fontSize=15;fontStyle=1" vertex="1" parent="1">
          <mxGeometry x="-332" y="355" width="60" height="30" as="geometry" />
        </mxCell>
        <mxCell id="QyaIkdRGfRYQji_6prUf-17" value="1.5" style="text;html=1;align=center;verticalAlign=middle;whiteSpace=wrap;rounded=0;fontSize=15;fontStyle=1" vertex="1" parent="1">
          <mxGeometry x="-527" y="277" width="60" height="30" as="geometry" />
        </mxCell>
        <mxCell id="QyaIkdRGfRYQji_6prUf-18" value="&lt;font style=&quot;font-size: 18px;&quot;&gt;Fluxo CriaÃ§Ã£o de UsuÃ¡rio&lt;/font&gt;" style="swimlane;whiteSpace=wrap;html=1;strokeColor=#6c8ebf;fillColor=#dae8fc;fillStyle=auto;swimlaneFillColor=none;shadow=0;sketch=1;curveFitting=1;jiggle=2;rounded=0;labelBackgroundColor=#D4E1F5;" vertex="1" parent="1">
          <mxGeometry x="-1390" y="184" width="1382" height="684" as="geometry" />
        </mxCell>
        <mxCell id="QyaIkdRGfRYQji_6prUf-22" value="1.3" style="text;html=1;align=center;verticalAlign=middle;whiteSpace=wrap;rounded=0;fontSize=15;fontStyle=1" vertex="1" parent="QyaIkdRGfRYQji_6prUf-18">
          <mxGeometry x="1100" y="46" width="60" height="36" as="geometry" />
        </mxCell>
        <mxCell id="QyaIkdRGfRYQji_6prUf-25" value="&lt;div style=&quot;color: rgb(0, 0, 0); background-color: rgb(255, 255, 254); font-family: Consolas, &amp;quot;Courier New&amp;quot;, monospace; font-size: 14px; line-height: 18px; white-space: pre;&quot;&gt;&lt;div style=&quot;font-size: 14px;&quot;&gt;&lt;span style=&quot;color: rgb(0, 0, 0); font-size: 14px;&quot;&gt;REQUEST BODY:&lt;/span&gt;&lt;/div&gt;&lt;div style=&quot;font-size: 14px;&quot;&gt;&lt;span style=&quot;color: rgb(0, 0, 0); font-size: 14px;&quot;&gt;{&lt;/span&gt;&lt;/div&gt;&lt;div style=&quot;font-size: 14px;&quot;&gt;&lt;span style=&quot;color: rgb(0, 0, 0); font-size: 14px;&quot;&gt;&amp;nbsp;&amp;nbsp;&amp;nbsp;&amp;nbsp;&lt;/span&gt;&lt;span style=&quot;color: rgb(163, 21, 21); font-size: 14px;&quot;&gt;&quot;username&quot;&lt;/span&gt;&lt;span style=&quot;color: rgb(0, 0, 0); font-size: 14px;&quot;&gt;:&amp;nbsp;&lt;/span&gt;&lt;span style=&quot;color: rgb(4, 81, 165); font-size: 14px;&quot;&gt;&quot;adm1&quot;&lt;/span&gt;&lt;span style=&quot;color: rgb(0, 0, 0); font-size: 14px;&quot;&gt;,&lt;/span&gt;&lt;/div&gt;&lt;div style=&quot;font-size: 14px;&quot;&gt;&lt;span style=&quot;color: rgb(0, 0, 0); font-size: 14px;&quot;&gt;&amp;nbsp;&amp;nbsp;&amp;nbsp;&amp;nbsp;&lt;/span&gt;&lt;span style=&quot;color: rgb(163, 21, 21); font-size: 14px;&quot;&gt;&quot;password&quot;&lt;/span&gt;&lt;span style=&quot;color: rgb(0, 0, 0); font-size: 14px;&quot;&gt;:&amp;nbsp;&lt;/span&gt;&lt;span style=&quot;color: rgb(4, 81, 165); font-size: 14px;&quot;&gt;&quot;adm1&quot;&lt;/span&gt;&lt;span style=&quot;color: rgb(0, 0, 0); font-size: 14px;&quot;&gt;,&lt;/span&gt;&lt;/div&gt;&lt;div style=&quot;font-size: 14px;&quot;&gt;&lt;span style=&quot;color: rgb(0, 0, 0); font-size: 14px;&quot;&gt;&amp;nbsp;&amp;nbsp;&amp;nbsp;&amp;nbsp;&lt;/span&gt;&lt;span style=&quot;color: rgb(163, 21, 21); font-size: 14px;&quot;&gt;&quot;firstName&quot;&lt;/span&gt;&lt;span style=&quot;color: rgb(0, 0, 0); font-size: 14px;&quot;&gt;:&amp;nbsp;&lt;/span&gt;&lt;span style=&quot;color: rgb(4, 81, 165); font-size: 14px;&quot;&gt;&quot;Admin&amp;nbsp;User&amp;nbsp;1&quot;&lt;/span&gt;&lt;span style=&quot;color: rgb(0, 0, 0); font-size: 14px;&quot;&gt;,&lt;/span&gt;&lt;/div&gt;&lt;div style=&quot;font-size: 14px;&quot;&gt;&lt;span style=&quot;color: rgb(0, 0, 0); font-size: 14px;&quot;&gt;&amp;nbsp;&amp;nbsp;&amp;nbsp;&amp;nbsp;&lt;/span&gt;&lt;span style=&quot;color: rgb(163, 21, 21); font-size: 14px;&quot;&gt;&quot;lastName&quot;&lt;/span&gt;&lt;span style=&quot;color: rgb(0, 0, 0); font-size: 14px;&quot;&gt;:&amp;nbsp;&lt;/span&gt;&lt;span style=&quot;color: rgb(4, 81, 165); font-size: 14px;&quot;&gt;&quot;Admin&amp;nbsp;1&quot;&lt;/span&gt;&lt;span style=&quot;color: rgb(0, 0, 0); font-size: 14px;&quot;&gt;,&lt;/span&gt;&lt;/div&gt;&lt;div style=&quot;font-size: 14px;&quot;&gt;&lt;span style=&quot;color: rgb(0, 0, 0); font-size: 14px;&quot;&gt;&amp;nbsp;&amp;nbsp;&amp;nbsp;&amp;nbsp;&lt;/span&gt;&lt;span style=&quot;color: rgb(163, 21, 21); font-size: 14px;&quot;&gt;&quot;documentNumber&quot;&lt;/span&gt;&lt;span style=&quot;color: rgb(0, 0, 0); font-size: 14px;&quot;&gt;:&amp;nbsp;&lt;/span&gt;&lt;span style=&quot;color: rgb(4, 81, 165); font-size: 14px;&quot;&gt;&quot;XXXXXXXX&quot;&lt;/span&gt;&lt;/div&gt;&lt;div style=&quot;font-size: 14px;&quot;&gt;&lt;span style=&quot;color: rgb(0, 0, 0); font-size: 14px;&quot;&gt;}&lt;/span&gt;&lt;/div&gt;&lt;/div&gt;" style="text;whiteSpace=wrap;html=1;fontSize=14;fontStyle=1" vertex="1" parent="QyaIkdRGfRYQji_6prUf-18">
          <mxGeometry x="30" y="496" width="200" height="136" as="geometry" />
        </mxCell>
        <mxCell id="QyaIkdRGfRYQji_6prUf-26" value="Persist" style="label;whiteSpace=wrap;html=1;image=img/clipart/Gear_128x128.png;fillColor=#dae8fc;strokeColor=#6c8ebf;" vertex="1" parent="QyaIkdRGfRYQji_6prUf-18">
          <mxGeometry x="1130" y="90" width="120" height="50" as="geometry" />
        </mxCell>
        <mxCell id="QyaIkdRGfRYQji_6prUf-27" value="&lt;div style=&quot;color: rgb(0, 0, 0); background-color: rgb(255, 255, 254); font-family: Consolas, &amp;quot;Courier New&amp;quot;, monospace; font-size: 12px; line-height: 18px; white-space: pre;&quot;&gt;&lt;div&gt;&lt;span style=&quot;color: #000000;&quot;&gt;RESPONSE:&lt;/span&gt;&lt;/div&gt;&lt;div&gt;&lt;span style=&quot;color: #000000;&quot;&gt;{&lt;/span&gt;&lt;/div&gt;&lt;div&gt;&lt;span style=&quot;color: #000000;&quot;&gt;&amp;nbsp;&amp;nbsp;&amp;nbsp;&amp;nbsp;&lt;/span&gt;&lt;span style=&quot;color: #a31515;&quot;&gt;&quot;username&quot;&lt;/span&gt;&lt;span style=&quot;color: #000000;&quot;&gt;:&amp;nbsp;&lt;/span&gt;&lt;span style=&quot;color: #0451a5;&quot;&gt;&quot;adm1&quot;&lt;/span&gt;&lt;span style=&quot;color: #000000;&quot;&gt;,&lt;/span&gt;&lt;/div&gt;&lt;div&gt;&lt;span style=&quot;color: #000000;&quot;&gt;&amp;nbsp;&amp;nbsp;&amp;nbsp;&amp;nbsp;&lt;/span&gt;&lt;span style=&quot;color: #a31515;&quot;&gt;&quot;password&quot;&lt;/span&gt;&lt;span style=&quot;color: #000000;&quot;&gt;:&amp;nbsp;&lt;/span&gt;&lt;span style=&quot;color: #0451a5;&quot;&gt;&quot;$2a$12$tSNhfVNYsGiwjQZE1WgdUegM5ElYkB7S96MpC4fL.wL6xkt8HE.Nq&quot;&lt;/span&gt;&lt;span style=&quot;color: #000000;&quot;&gt;,&lt;/span&gt;&lt;/div&gt;&lt;div&gt;&lt;span style=&quot;color: #000000;&quot;&gt;&amp;nbsp;&amp;nbsp;&amp;nbsp;&amp;nbsp;&lt;/span&gt;&lt;span style=&quot;color: #a31515;&quot;&gt;&quot;firstName&quot;&lt;/span&gt;&lt;span style=&quot;color: #000000;&quot;&gt;:&amp;nbsp;&lt;/span&gt;&lt;span style=&quot;color: #0451a5;&quot;&gt;&quot;Admin&amp;nbsp;User&amp;nbsp;1&quot;&lt;/span&gt;&lt;span style=&quot;color: #000000;&quot;&gt;,&lt;/span&gt;&lt;/div&gt;&lt;div&gt;&lt;span style=&quot;color: #000000;&quot;&gt;&amp;nbsp;&amp;nbsp;&amp;nbsp;&amp;nbsp;&lt;/span&gt;&lt;span style=&quot;color: #a31515;&quot;&gt;&quot;lastName&quot;&lt;/span&gt;&lt;span style=&quot;color: #000000;&quot;&gt;:&amp;nbsp;&lt;/span&gt;&lt;span style=&quot;color: #0451a5;&quot;&gt;&quot;Admin&amp;nbsp;1&quot;&lt;/span&gt;&lt;span style=&quot;color: #000000;&quot;&gt;,&lt;/span&gt;&lt;/div&gt;&lt;div&gt;&lt;span style=&quot;color: #000000;&quot;&gt;&amp;nbsp;&amp;nbsp;&amp;nbsp;&amp;nbsp;&lt;/span&gt;&lt;span style=&quot;color: #a31515;&quot;&gt;&quot;documentNumber&quot;&lt;/span&gt;&lt;span style=&quot;color: #000000;&quot;&gt;:&amp;nbsp;&lt;/span&gt;&lt;span style=&quot;color: #0451a5;&quot;&gt;&quot;XXXXXXXX&quot;&lt;/span&gt;&lt;span style=&quot;color: #000000;&quot;&gt;,&lt;/span&gt;&lt;/div&gt;&lt;div&gt;&lt;span style=&quot;color: #000000;&quot;&gt;&amp;nbsp;&amp;nbsp;&amp;nbsp;&amp;nbsp;&lt;/span&gt;&lt;span style=&quot;color: #a31515;&quot;&gt;&quot;premium&quot;&lt;/span&gt;&lt;span style=&quot;color: #000000;&quot;&gt;:&amp;nbsp;&lt;/span&gt;&lt;span style=&quot;color: rgb(4, 81, 165);&quot;&gt;false&lt;/span&gt;&lt;span style=&quot;color: #000000;&quot;&gt;,&lt;/span&gt;&lt;/div&gt;&lt;div&gt;&lt;span style=&quot;color: #000000;&quot;&gt;&amp;nbsp;&amp;nbsp;&amp;nbsp;&amp;nbsp;&lt;/span&gt;&lt;span style=&quot;color: #a31515;&quot;&gt;&quot;createdDate&quot;&lt;/span&gt;&lt;span style=&quot;color: #000000;&quot;&gt;:&amp;nbsp;&lt;/span&gt;&lt;span style=&quot;color: #0451a5;&quot;&gt;&quot;2024-06-02&quot;&lt;/span&gt;&lt;span style=&quot;color: #000000;&quot;&gt;,&lt;/span&gt;&lt;/div&gt;&lt;div&gt;&lt;span style=&quot;color: #000000;&quot;&gt;&amp;nbsp;&amp;nbsp;&amp;nbsp;&amp;nbsp;&lt;/span&gt;&lt;span style=&quot;color: #a31515;&quot;&gt;&quot;active&quot;&lt;/span&gt;&lt;span style=&quot;color: #000000;&quot;&gt;:&amp;nbsp;&lt;/span&gt;&lt;span style=&quot;color: rgb(4, 81, 165);&quot;&gt;false&lt;/span&gt;&lt;/div&gt;&lt;div&gt;&lt;span style=&quot;color: #000000;&quot;&gt;}&lt;/span&gt;&lt;/div&gt;&lt;/div&gt;" style="text;whiteSpace=wrap;html=1;fontStyle=1" vertex="1" parent="QyaIkdRGfRYQji_6prUf-18">
          <mxGeometry x="360" y="456" width="440" height="186" as="geometry" />
        </mxCell>
        <mxCell id="QyaIkdRGfRYQji_6prUf-28" value="1.6" style="text;html=1;align=center;verticalAlign=middle;whiteSpace=wrap;rounded=0;fontSize=15;fontStyle=1" vertex="1" parent="QyaIkdRGfRYQji_6prUf-18">
          <mxGeometry x="330" y="156" width="60" height="30" as="geometry" />
        </mxCell>
        <mxCell id="QyaIkdRGfRYQji_6prUf-29" value="&lt;font style=&quot;font-size: 14px;&quot;&gt;Entity&lt;/font&gt;" style="shape=ext;margin=3;double=1;whiteSpace=wrap;html=1;align=center;fontStyle=1;fillColor=#f8cecc;strokeColor=#b85450;" vertex="1" parent="QyaIkdRGfRYQji_6prUf-18">
          <mxGeometry x="1090" y="216" width="100" height="40" as="geometry" />
        </mxCell>
        <mxCell id="QyaIkdRGfRYQji_6prUf-31" value="&lt;span style=&quot;color: rgb(80, 80, 80); font-family: OpenSans, Helvetica, Arial, sans-serif; font-size: 15px; font-style: normal; font-variant-ligatures: normal; font-variant-caps: normal; letter-spacing: normal; orphans: 2; text-align: left; text-indent: 0px; text-transform: none; white-space: pre-wrap; widows: 2; word-spacing: 0px; -webkit-text-stroke-width: 0px; background-color: rgb(255, 255, 255); text-decoration-style: initial; text-decoration-color: initial; float: none; display: inline !important;&quot;&gt;POST /emusicuserds/v1/user/create&lt;/span&gt;" style="text;whiteSpace=wrap;html=1;strokeWidth=1;fontSize=15;fontStyle=1" vertex="1" parent="QyaIkdRGfRYQji_6prUf-18">
          <mxGeometry x="695" y="36" width="190" height="40" as="geometry" />
        </mxCell>
        <mxCell id="QyaIkdRGfRYQji_6prUf-33" value="&lt;span style=&quot;color: rgb(80, 80, 80); font-family: OpenSans, Helvetica, Arial, sans-serif; font-size: 14px; font-style: normal; font-variant-ligatures: normal; font-variant-caps: normal; letter-spacing: normal; orphans: 2; text-align: left; text-indent: 0px; text-transform: none; white-space: pre-wrap; widows: 2; word-spacing: 0px; -webkit-text-stroke-width: 0px; background-color: rgb(255, 255, 255); text-decoration-style: initial; text-decoration-color: initial; float: none; display: inline !important;&quot;&gt;POST /emusicregister/v1/register&lt;/span&gt;" style="text;whiteSpace=wrap;html=1;fontSize=14;fontStyle=1" vertex="1" parent="QyaIkdRGfRYQji_6prUf-18">
          <mxGeometry x="100" y="456" width="170" height="40" as="geometry" />
        </mxCell>
        <mxCell id="QyaIkdRGfRYQji_6prUf-24" value="1.1" style="text;html=1;align=center;verticalAlign=middle;whiteSpace=wrap;rounded=0;fontSize=15;fontStyle=1" vertex="1" parent="1">
          <mxGeometry x="-1151" y="814" width="60" height="30" as="geometry" />
        </mxCell>
        <mxCell id="QyaIkdRGfRYQji_6prUf-34" value="Fluxo de AutenticaÃ§Ã£o" style="text;html=1;align=center;verticalAlign=middle;whiteSpace=wrap;rounded=0;fontSize=23;fontStyle=1" vertex="1" parent="1">
          <mxGeometry x="440" y="-440" width="310" height="30" as="geometry" />
        </mxCell>
        <mxCell id="QyaIkdRGfRYQji_6prUf-35" value="1. UsuÃ¡rio informa login e senha e entÃ£o Ã© gerado o token de acesso" style="text;html=1;align=center;verticalAlign=middle;whiteSpace=wrap;rounded=0;fontSize=21;fontStyle=1" vertex="1" parent="1">
          <mxGeometry x="360" y="-400" width="764" height="20" as="geometry" />
        </mxCell>
        <mxCell id="QyaIkdRGfRYQji_6prUf-36" value="Acessando os ServiÃ§os" style="text;html=1;align=center;verticalAlign=middle;whiteSpace=wrap;rounded=0;fontSize=23;fontStyle=1" vertex="1" parent="1">
          <mxGeometry x="450" y="-240" width="310" height="30" as="geometry" />
        </mxCell>
        <mxCell id="QyaIkdRGfRYQji_6prUf-37" value="1. UsuÃ¡rio realiza requisiÃ§Ã£o para o recurso desejado informando o token de acesso no header Authorization" style="text;html=1;align=center;verticalAlign=middle;whiteSpace=wrap;rounded=0;fontSize=21;fontStyle=1" vertex="1" parent="1">
          <mxGeometry x="289" y="-180" width="1162" height="20" as="geometry" />
        </mxCell>
        <mxCell id="QyaIkdRGfRYQji_6prUf-40" value="Text" style="text;html=1;align=center;verticalAlign=middle;whiteSpace=wrap;rounded=0;" vertex="1" parent="1">
          <mxGeometry x="1130" y="150" width="60" height="30" as="geometry" />
        </mxCell>
        <mxCell id="QyaIkdRGfRYQji_6prUf-41" value="2. O Gateway irÃ¡ validar o token de acesso (se estÃ¡ vÃ¡lido)" style="text;html=1;align=center;verticalAlign=middle;whiteSpace=wrap;rounded=0;fontSize=21;fontStyle=1" vertex="1" parent="1">
          <mxGeometry x="40" y="-150" width="1162" height="20" as="geometry" />
        </mxCell>
        <mxCell id="QyaIkdRGfRYQji_6prUf-42" value="3. Caso o token esteja vÃ¡lido, significa que o usuÃ¡rio logado estÃ¡ validado." style="text;html=1;align=center;verticalAlign=middle;whiteSpace=wrap;rounded=0;fontSize=21;fontStyle=1" vertex="1" parent="1">
          <mxGeometry x="120" y="-120" width="1162" height="20" as="geometry" />
        </mxCell>
        <mxCell id="QyaIkdRGfRYQji_6prUf-43" value="4. ApÃ³s ter validado o usuÃ¡rio, como os serviÃ§os que serÃ£o acessados sÃ£o do spotify, eles dependem de um Authorization do Spotify" style="text;html=1;align=center;verticalAlign=middle;whiteSpace=wrap;rounded=0;fontSize=21;fontStyle=1" vertex="1" parent="1">
          <mxGeometry x="289" y="-90" width="1410" height="20" as="geometry" />
        </mxCell>
        <mxCell id="QyaIkdRGfRYQji_6prUf-44" value="5. O Gateway irÃ¡ no Spotify com o client_id, secret_id e grant_type e irÃ¡ gerar um access_token" style="text;html=1;align=center;verticalAlign=middle;whiteSpace=wrap;rounded=0;fontSize=21;fontStyle=1" vertex="1" parent="1">
          <mxGeometry x="100" y="-60" width="1410" height="20" as="geometry" />
        </mxCell>
        <mxCell id="QyaIkdRGfRYQji_6prUf-45" value="6. O Gateway irÃ¡ realizar a requisiÃ§Ã£o para o serviÃ§o solicitado com o acccess_token do Spotify e irÃ¡ devolver a resposta" style="text;html=1;align=center;verticalAlign=middle;whiteSpace=wrap;rounded=0;fontSize=21;fontStyle=1" vertex="1" parent="1">
          <mxGeometry x="229" y="-30" width="1410" height="20" as="geometry" />
        </mxCell>
      </root>
    </mxGraphModel>
  </diagram>
</mxfile>
